# Created by FreeCAD <http://www.freecadweb.org>
v 0.000000 0.000000 0.000000
v 10.000000 0.000000 0.000000
v 0.000000 0.000000 9.000000
v 10.000000 0.000000 9.000000
v 0.000000 10.000000 0.000000
v 0.000000 10.000000 9.000000
v 9.000000 1.000000 10.000000
v 1.000000 1.000000 10.000000
v 3.128723 3.342193 0.000000
v 3.579838 2.942540 0.000000
v 2.786360 3.838192 0.000000
v 4.113488 2.662459 0.000000
v 2.572645 4.401711 0.000000
v 4.698658 2.518228 0.000000
v 2.500000 5.000000 0.000000
v 5.301342 2.518228 0.000000
v 5.886512 2.662459 0.000000
v 6.420162 2.942540 0.000000
v 2.786360 6.161808 0.000000
v 3.128723 6.657807 0.000000
v 2.572645 5.598289 0.000000
v 6.871277 3.342193 0.000000
v 3.579838 7.057460 0.000000
v 7.213640 3.838192 0.000000
v 4.113488 7.337541 0.000000
v 7.427354 4.401711 0.000000
v 4.698658 7.481772 0.000000
v 7.500000 5.000000 0.000000
v 7.427354 5.598289 0.000000
v 10.000000 10.000000 0.000000
v 7.213640 6.161808 0.000000
v 6.871277 6.657807 0.000000
v 6.420162 7.057460 0.000000
v 5.886512 7.337541 0.000000
v 5.301342 7.481772 0.000000
v 10.000000 10.000000 9.000000
v 1.000000 9.000000 10.000000
v 3.579838 2.942540 10.000000
v 3.128723 3.342193 10.000000
v 2.786360 3.838192 10.000000
v 4.113488 2.662459 10.000000
v 2.572645 4.401711 10.000000
v 4.698658 2.518228 10.000000
v 2.500000 5.000000 10.000000
v 5.301342 2.518228 10.000000
v 6.420162 2.942540 10.000000
v 5.886512 2.662459 10.000000
v 2.572645 5.598289 10.000000
v 2.786360 6.161808 10.000000
v 3.128723 6.657807 10.000000
v 6.871277 3.342193 10.000000
v 3.579838 7.057460 10.000000
v 7.213640 3.838192 10.000000
v 4.113488 7.337541 10.000000
v 7.427354 4.401711 10.000000
v 4.698658 7.481772 10.000000
v 7.500000 5.000000 10.000000
v 9.000000 9.000000 10.000000
v 5.301342 7.481772 10.000000
v 5.886512 7.337541 10.000000
v 6.420162 7.057460 10.000000
v 6.871277 6.657807 10.000000
v 7.213640 6.161808 10.000000
v 7.427354 5.598289 10.000000
v 7.500000 5.000000 15.000000
v 7.427354 5.598289 15.000000
v 7.213640 6.161808 15.000000
v 6.871277 6.657807 15.000000
v 6.420162 7.057460 15.000000
v 5.886512 7.337541 15.000000
v 5.301342 7.481772 15.000000
v 4.698658 7.481772 15.000000
v 4.113488 7.337541 15.000000
v 3.579838 7.057460 15.000000
v 3.128723 6.657807 15.000000
v 2.786360 6.161808 15.000000
v 2.572645 5.598289 15.000000
v 2.500000 5.000000 15.000000
v 2.572645 4.401711 15.000000
v 2.786360 3.838192 15.000000
v 3.128723 3.342193 15.000000
v 3.579838 2.942540 15.000000
v 4.113488 2.662459 15.000000
v 4.698658 2.518228 15.000000
v 5.301342 2.518228 15.000000
v 5.886512 2.662459 15.000000
v 6.420162 2.942540 15.000000
v 6.871277 3.342193 15.000000
v 7.213640 3.838192 15.000000
v 7.427354 4.401711 15.000000
vn 0.000000 -1.000000 0.000000
vn 0.000000 -1.000000 0.000000
vn -1.000000 0.000000 0.000000
vn -1.000000 -0.000000 0.000000
vn 0.000000 -0.707107 0.707107
vn 0.000000 -0.707107 0.707107
vn 0.000000 -0.000000 -1.000000
vn 0.000000 0.000000 -1.000000
vn 0.000000 -0.000000 -1.000000
vn 0.000000 0.000000 -1.000000
vn 0.000000 -0.000000 -1.000000
vn 0.000000 0.000000 -1.000000
vn 0.000000 -0.000000 -1.000000
vn 0.000000 -0.000000 -1.000000
vn 0.000000 -0.000000 -1.000000
vn 0.000000 -0.000000 -1.000000
vn 0.000000 0.000000 -1.000000
vn 0.000000 0.000000 -1.000000
vn 0.000000 0.000000 -1.000000
vn 0.000000 0.000000 -1.000000
vn 0.000000 0.000000 -1.000000
vn 0.000000 0.000000 -1.000000
vn 0.000000 0.000000 -1.000000
vn 0.000000 0.000000 -1.000000
vn 0.000000 0.000000 -1.000000
vn 0.000000 0.000000 -1.000000
vn 0.000000 0.000000 -1.000000
vn 0.000000 0.000000 -1.000000
vn 0.000000 0.000000 -1.000000
vn 0.000000 0.000000 -1.000000
vn 0.000000 0.000000 -1.000000
vn 0.000000 0.000000 -1.000000
vn 0.000000 0.000000 -1.000000
vn 0.000000 0.000000 -1.000000
vn 0.000000 0.000000 -1.000000
vn 0.000000 0.000000 -1.000000
vn 1.000000 0.000000 0.000000
vn 1.000000 -0.000000 0.000000
vn 0.000000 1.000000 -0.000000
vn 0.000000 1.000000 0.000000
vn -0.707107 0.000000 0.707107
vn -0.707107 0.000000 0.707107
vn 0.000000 0.000000 1.000000
vn 0.000000 0.000000 1.000000
vn 0.000000 0.000000 1.000000
vn 0.000000 0.000000 1.000000
vn 0.000000 0.000000 1.000000
vn 0.000000 0.000000 1.000000
vn 0.000000 0.000000 1.000000
vn 0.000000 0.000000 1.000000
vn 0.000000 0.000000 1.000000
vn 0.000000 0.000000 1.000000
vn 0.000000 0.000000 1.000000
vn 0.000000 0.000000 1.000000
vn 0.000000 0.000000 1.000000
vn 0.000000 0.000000 1.000000
vn 0.000000 0.000000 1.000000
vn 0.000000 0.000000 1.000000
vn 0.000000 0.000000 1.000000
vn 0.000000 0.000000 1.000000
vn 0.000000 0.000000 1.000000
vn 0.000000 0.000000 1.000000
vn 0.000000 0.000000 1.000000
vn 0.000000 0.000000 1.000000
vn 0.000000 0.000000 1.000000
vn 0.000000 0.000000 1.000000
vn 0.000000 0.000000 1.000000
vn 0.000000 0.000000 1.000000
vn 0.000000 0.000000 1.000000
vn 0.000000 0.000000 1.000000
vn 0.000000 0.000000 1.000000
vn 0.000000 0.000000 1.000000
vn 0.707107 0.000000 0.707107
vn 0.707107 0.000000 0.707107
vn 0.000000 0.000000 -1.000000
vn 0.000000 0.000000 -1.000000
vn 0.000000 0.000000 -1.000000
vn 0.000000 0.000000 -1.000000
vn 0.000000 0.000000 -1.000000
vn 0.000000 -0.000000 -1.000000
vn 0.000000 -0.000000 -1.000000
vn 0.000000 0.000000 -1.000000
vn 0.000000 0.000000 -1.000000
vn 0.000000 -0.000000 -1.000000
vn 0.000000 0.000000 -1.000000
vn 0.000000 0.000000 -1.000000
vn 0.000000 0.000000 -1.000000
vn -0.000000 -0.000000 -1.000000
vn 0.000000 -0.000000 -1.000000
vn 0.000000 -0.000000 -1.000000
vn 0.000000 0.000000 -1.000000
vn -0.000000 -0.000000 -1.000000
vn 0.000000 0.000000 -1.000000
vn 0.000000 0.000000 -1.000000
vn 0.000000 0.000000 -1.000000
vn 0.000000 0.000000 -1.000000
vn 0.000000 0.000000 -1.000000
vn 0.000000 -0.000000 -1.000000
vn -0.000000 0.707107 0.707107
vn -0.000000 0.707107 0.707107
vn 0.992709 0.120537 0.000000
vn 0.935016 0.354604 0.000000
vn 0.992709 0.120537 0.000000
vn 0.822984 0.568065 0.000000
vn 0.935016 0.354604 0.000000
vn 0.663122 0.748511 0.000000
vn 0.822984 0.568065 0.000000
vn 0.464723 0.885456 0.000000
vn 0.663122 0.748511 0.000000
vn 0.239316 0.970942 0.000000
vn 0.464723 0.885456 0.000000
vn 0.000000 1.000000 0.000000
vn 0.239316 0.970942 0.000000
vn -0.239316 0.970942 0.000000
vn 0.000000 1.000000 0.000000
vn -0.239316 0.970942 0.000000
vn -0.464723 0.885456 0.000000
vn -0.663123 0.748511 0.000000
vn -0.464723 0.885456 0.000000
vn -0.822984 0.568065 0.000000
vn -0.663123 0.748511 0.000000
vn -0.822984 0.568065 0.000000
vn -0.935016 0.354605 0.000000
vn -0.935016 0.354605 0.000000
vn -0.992709 0.120537 0.000000
vn -0.992709 0.120537 0.000000
vn -0.992709 -0.120537 0.000000
vn -0.992709 -0.120537 0.000000
vn -0.935016 -0.354605 0.000000
vn -0.935016 -0.354605 0.000000
vn -0.822984 -0.568065 0.000000
vn -0.822984 -0.568065 0.000000
vn -0.663123 -0.748511 0.000000
vn -0.663123 -0.748511 0.000000
vn -0.464723 -0.885456 -0.000000
vn -0.464723 -0.885456 0.000000
vn -0.239316 -0.970942 0.000000
vn -0.239316 -0.970942 0.000000
vn 0.000000 -1.000000 0.000000
vn 0.000000 -1.000000 0.000000
vn 0.239316 -0.970942 0.000000
vn 0.239316 -0.970942 0.000000
vn 0.464723 -0.885456 0.000000
vn 0.464723 -0.885456 0.000000
vn 0.663122 -0.748511 0.000000
vn 0.663122 -0.748511 0.000000
vn 0.822984 -0.568065 0.000000
vn 0.935016 -0.354604 0.000000
vn 0.822984 -0.568065 0.000000
vn 0.935016 -0.354604 0.000000
vn 0.992709 -0.120537 0.000000
vn 0.992709 -0.120537 0.000000
vn 0.000000 0.000000 1.000000
vn 0.000000 0.000000 1.000000
vn 0.000000 0.000000 1.000000
vn 0.000000 0.000000 1.000000
vn 0.000000 0.000000 1.000000
vn 0.000000 0.000000 1.000000
vn 0.000000 0.000000 1.000000
vn 0.000000 0.000000 1.000000
vn 0.000000 0.000000 1.000000
vn 0.000000 0.000000 1.000000
vn 0.000000 0.000000 1.000000
vn 0.000000 0.000000 1.000000
vn 0.000000 0.000000 1.000000
vn 0.000000 0.000000 1.000000
vn 0.000000 0.000000 1.000000
vn 0.000000 0.000000 1.000000
vn 0.000000 0.000000 1.000000
vn 0.000000 0.000000 1.000000
vn 0.000000 0.000000 1.000000
vn 0.000000 0.000000 1.000000
vn 0.000000 0.000000 1.000000
vn 0.000000 0.000000 1.000000
vn 0.000000 0.000000 1.000000
vn 0.000000 0.000000 1.000000
f 1//1 2//1 3//1
f 3//2 2//2 4//2
f 5//3 1//3 6//3
f 6//4 1//4 3//4
f 7//5 8//5 3//5
f 7//6 3//6 4//6
f 9//7 10//7 1//7
f 1//8 11//8 9//8
f 10//9 12//9 1//9
f 1//10 13//10 11//10
f 12//11 14//11 1//11
f 1//12 15//12 13//12
f 14//13 16//13 1//13
f 17//14 2//14 16//14
f 18//15 2//15 17//15
f 16//16 2//16 1//16
f 19//17 5//17 20//17
f 21//18 5//18 19//18
f 15//19 5//19 21//19
f 1//20 5//20 15//20
f 18//21 22//21 2//21
f 5//22 23//22 20//22
f 22//23 24//23 2//23
f 5//24 25//24 23//24
f 24//25 26//25 2//25
f 5//26 27//26 25//26
f 26//27 28//27 2//27
f 29//28 30//28 28//28
f 31//29 30//29 29//29
f 32//30 30//30 31//30
f 33//31 30//31 32//31
f 34//32 30//32 33//32
f 35//33 30//33 34//33
f 27//34 30//34 35//34
f 5//35 30//35 27//35
f 28//36 30//36 2//36
f 2//37 30//37 4//37
f 4//38 30//38 36//38
f 30//39 5//39 36//39
f 36//40 5//40 6//40
f 3//41 37//41 6//41
f 8//42 37//42 3//42
f 38//43 39//43 8//43
f 40//44 8//44 39//44
f 41//45 38//45 8//45
f 42//46 8//46 40//46
f 43//47 41//47 8//47
f 44//48 8//48 42//48
f 45//49 43//49 8//49
f 7//50 46//50 47//50
f 7//51 47//51 45//51
f 7//52 45//52 8//52
f 37//53 44//53 48//53
f 37//54 48//54 49//54
f 37//55 49//55 50//55
f 37//56 8//56 44//56
f 51//57 46//57 7//57
f 52//58 37//58 50//58
f 53//59 51//59 7//59
f 54//60 37//60 52//60
f 55//61 53//61 7//61
f 56//62 37//62 54//62
f 57//63 55//63 7//63
f 58//64 59//64 60//64
f 58//65 60//65 61//65
f 58//66 61//66 62//66
f 58//67 62//67 63//67
f 58//68 63//68 64//68
f 58//69 64//69 57//69
f 58//70 57//70 7//70
f 58//71 37//71 59//71
f 59//72 37//72 56//72
f 36//73 7//73 4//73
f 58//74 7//74 36//74
f 9//75 12//75 10//75
f 15//76 21//76 13//76
f 14//77 22//77 16//77
f 16//78 22//78 17//78
f 17//79 22//79 18//79
f 20//80 23//80 19//80
f 19//81 23//81 21//81
f 13//82 25//82 11//82
f 21//83 25//83 13//83
f 23//84 25//84 21//84
f 22//85 29//85 24//85
f 24//86 29//86 26//86
f 26//87 29//87 28//87
f 35//88 34//88 27//88
f 27//89 34//89 25//89
f 25//90 34//90 11//90
f 29//91 32//91 31//91
f 33//92 32//92 34//92
f 11//93 32//93 9//93
f 12//94 32//94 14//94
f 9//95 32//95 12//95
f 14//96 32//96 22//96
f 22//97 32//97 29//97
f 34//98 32//98 11//98
f 6//99 58//99 36//99
f 37//100 58//100 6//100
f 65//101 57//101 66//101
f 66//102 64//102 67//102
f 57//103 64//103 66//103
f 67//104 63//104 68//104
f 64//105 63//105 67//105
f 68//106 62//106 69//106
f 63//107 62//107 68//107
f 69//108 61//108 70//108
f 62//109 61//109 69//109
f 70//110 60//110 71//110
f 61//111 60//111 70//111
f 71//112 59//112 72//112
f 60//113 59//113 71//113
f 72//114 56//114 73//114
f 59//115 56//115 72//115
f 56//116 54//116 73//116
f 73//117 52//117 74//117
f 74//118 52//118 75//118
f 54//119 52//119 73//119
f 75//120 50//120 76//120
f 52//121 50//121 75//121
f 50//122 49//122 76//122
f 76//123 49//123 77//123
f 49//124 48//124 77//124
f 77//125 48//125 78//125
f 48//126 44//126 78//126
f 44//127 42//127 78//127
f 78//128 42//128 79//128
f 42//129 40//129 79//129
f 79//130 40//130 80//130
f 40//131 39//131 80//131
f 80//132 39//132 81//132
f 39//133 38//133 81//133
f 81//134 38//134 82//134
f 82//135 38//135 83//135
f 38//136 41//136 83//136
f 41//137 43//137 83//137
f 83//138 43//138 84//138
f 84//139 43//139 85//139
f 43//140 45//140 85//140
f 45//141 47//141 85//141
f 85//142 47//142 86//142
f 86//143 47//143 87//143
f 47//144 46//144 87//144
f 46//145 51//145 87//145
f 87//146 51//146 88//146
f 88//147 51//147 89//147
f 89//148 53//148 90//148
f 51//149 53//149 89//149
f 53//150 55//150 90//150
f 90//151 57//151 65//151
f 55//152 57//152 90//152
f 83//153 81//153 82//153
f 77//154 78//154 79//154
f 88//155 84//155 85//155
f 88//156 85//156 86//156
f 88//157 86//157 87//157
f 74//158 75//158 76//158
f 74//159 76//159 77//159
f 73//160 79//160 80//160
f 73//161 77//161 79//161
f 73//162 74//162 77//162
f 66//163 88//163 89//163
f 66//164 89//164 90//164
f 66//165 90//165 65//165
f 70//166 71//166 72//166
f 70//167 72//167 73//167
f 70//168 73//168 80//168
f 68//169 66//169 67//169
f 68//170 69//170 70//170
f 68//171 80//171 81//171
f 68//172 83//172 84//172
f 68//173 81//173 83//173
f 68//174 84//174 88//174
f 68//175 88//175 66//175
f 68//176 70//176 80//176
